<?xml version="1.0" encoding="UTF-8" standalone="no"?>
<!DOCTYPE svg PUBLIC "-//W3C//DTD SVG 1.1//EN" "http://www.w3.org/Graphics/SVG/1.1/DTD/svg11.dtd">
<!-- Created with Vectornator (http://vectornator.io/) -->
<svg height="319.5660015427534px" stroke-miterlimit="10" style="fill-rule:nonzero;clip-rule:evenodd;stroke-linecap:round;stroke-linejoin:round;" version="1.1" viewBox="0 0 1716.11 319.566" width="1716.1126072183413px" xml:space="preserve" xmlns="http://www.w3.org/2000/svg" xmlns:xlink="http://www.w3.org/1999/xlink">
<defs/>
<clipPath id="ArtboardFrame">
<rect height="319.566" width="1716.11" x="0" y="0"/>
</clipPath>
<g clip-path="url(#ArtboardFrame)" id="Layer-2">
<g opacity="1">
<path d="M1709.26 88.0675L1709.26 229.283C1709.26 278.229 1668.47 317.907 1618.16 317.907L1618.16 317.907C1567.84 317.907 1527.05 278.229 1527.05 229.283L1527.05 88.0675C1527.05 39.1219 1567.84-0.556395 1618.16-0.556395L1618.16-0.556395C1668.47-0.556395 1709.26 39.1219 1709.26 88.0675Z" fill="#fbba28" fill-rule="nonzero" opacity="1" stroke="none"/>
<path d="M1495.1 48.9775L1495.1 268.373C1495.1 274.408 1489.37 279.3 1482.3 279.3L1482.3 279.3C1475.23 279.3 1469.5 274.408 1469.5 268.373L1469.5 48.9775C1469.5 42.943 1475.23 38.051 1482.3 38.051L1482.3 38.051C1489.37 38.051 1495.1 42.943 1495.1 48.9775Z" fill="#a5619a" fill-rule="nonzero" opacity="1" stroke="none"/>
<path d="M1432.1 48.9775L1432.1 268.373C1432.1 274.408 1426.37 279.3 1419.3 279.3L1419.3 279.3C1412.23 279.3 1406.5 274.408 1406.5 268.373L1406.5 48.9775C1406.5 42.943 1412.23 38.051 1419.3 38.051L1419.3 38.051C1426.37 38.051 1432.1 42.943 1432.1 48.9775Z" fill="#a5619a" fill-rule="nonzero" opacity="1" stroke="none"/>
<path d="M1379.52 156.703L1379.52 160.648C1379.52 245.98 1306.27 315.155 1215.9 315.155L1215.9 315.155C1125.53 315.155 1052.28 245.98 1052.28 160.648L1052.28 156.703C1052.28 71.3713 1125.53 2.19612 1215.9 2.19612L1215.9 2.19612C1306.27 2.19612 1379.52 71.3713 1379.52 156.703Z" fill="#fbba28" fill-rule="nonzero" opacity="1" stroke="none"/>
<path d="M1047.09 158.675L1047.09 158.675C1047.09 243.794 990.03 312.796 919.637 312.796L131.495 312.796C61.1021 312.796 4.0376 243.794 4.0376 158.675L4.0376 158.675C4.0376 73.5568 61.1021 4.55448 131.495 4.55448L919.637 4.55448C990.03 4.55448 1047.09 73.5568 1047.09 158.675Z" fill="#37b1b2" fill-rule="nonzero" opacity="1" stroke="none"/>
<path d="M906.681 5.11425L906.681 312.237L676.788 312.237L676.788 5.11425L906.681 5.11425Z" fill="#a5619a" fill-rule="nonzero" opacity="1" stroke="none"/>
<path d="M649.49 3.91177L649.49 313.439L519.051 313.439L519.051 3.91177L649.49 3.91177Z" fill="#a5619a" fill-rule="nonzero" opacity="1" stroke="none"/>
<path d="M377.155 5.38939L377.155 311.961L311.879 311.961L311.879 5.38939L377.155 5.38939Z" fill="#a5619a" fill-rule="nonzero" opacity="1" stroke="none"/>
<path d="M282.34 3.08416L282.34 314.267L150.701 314.267L150.701 3.08416L282.34 3.08416Z" fill="#a5619a" fill-rule="nonzero" opacity="1" stroke="none"/>
<path d="M1266.05 9.99927L1266.05 307.678L1231.9 314.222L1231.98 3.12894L1266.05 9.99927Z" fill="#e84e2c" fill-rule="nonzero" opacity="1" stroke="none"/>
<path d="M1211.68 2.25364L1211.92 315.097L1177.9 310.743L1177.9 6.05359L1211.68 2.25364Z" fill="#e84e2c" fill-rule="nonzero" opacity="1" stroke="none"/>
</g>
</g>
</svg>
